<svg width="68" height="50" viewBox="0 0 68 50" fill="none" xmlns="http://www.w3.org/2000/svg">
  <rect width="68" height="50" rx="5" fill="#004B8D" />
  <g clip-path="url(#clip0_2014_3)">
    <mask id="mask0_2014_3" style="mask-type:luminance" maskUnits="userSpaceOnUse" x="23" y="9"
      width="24" height="32">
      <path d="M23 9H47V41H23V9Z" fill="white" />
    </mask>
    <g mask="url(#mask0_2014_3)">
      <path fill-rule="evenodd" clip-rule="evenodd"
        d="M44.0381 33.6833C43.4225 34.2751 42.6807 34.7125 41.6373 35.1015L29.1526 39.6125V28.4459L38.3477 22.9419L38.3549 22.9376C38.5452 22.8186 38.7065 22.7027 38.8627 22.5902C38.8923 22.5694 38.9219 22.5477 38.9515 22.5269C41.1321 22.6278 42.7971 23.2423 44.039 24.4024C45.3458 25.6843 45.9807 27.2025 45.9807 29.0421C45.9807 30.8843 45.3437 32.4027 44.038 33.6833H44.0381ZM37.0104 22.5204L29.1527 27.2246V22.5203L37.0104 22.5204ZM28.1334 38.4011L24.2081 31.4206L28.1334 29.0588V38.4012V38.4011ZM33.1712 10.0581C35.7121 10.0581 37.5883 10.6735 38.9055 11.9399C40.194 13.1773 40.8477 14.7384 40.8477 16.5808C40.8477 18.5567 40.0618 20.2837 38.6308 21.4621H28.1334V27.8356L24.0195 30.3096V10.0582L33.1712 10.0581ZM44.7345 23.6279L44.7258 23.6205C43.5276 22.4995 41.9503 21.8083 40.025 21.5594C41.2076 20.235 41.8671 18.4785 41.8671 16.5808C41.8671 14.4312 41.1031 12.6085 39.5977 11.1629C38.0835 9.70777 35.981 9 33.1712 9H23V31.3718L28.4145 41L41.9772 36.0997C43.1446 35.6644 44.0196 35.1441 44.7345 34.4556C46.2378 32.9833 47 31.1621 47 29.0421C47 26.9229 46.2378 25.1014 44.7345 23.6279Z"
        fill="white" />
    </g>
  </g>
  <defs>
    <clipPath id="clip0_2014_3">
      <rect width="24" height="32" fill="white" transform="translate(23 9)" />
    </clipPath>
  </defs>
</svg>
