<svg width="68" height="49" viewBox="0 0 68 49" fill="none" xmlns="http://www.w3.org/2000/svg">
<rect width="68" height="49" rx="5" fill="#343434"/>
<g clip-path="url(#clip0_62_3)">
<path d="M54.887 27.4577L45.1121 10.6953L45.0556 10.5638C44.7731 10.2067 44.4153 10 44.0009 10H31.2126C30.9301 10.0752 30.7229 10.2819 30.4404 10.5638L14.7704 27.3262C14.7704 27.3262 14.6951 27.3262 14.6951 27.4013L14.6198 27.4765C14.5444 27.5517 14.5444 27.6832 14.5444 27.8336C14.5444 28.1906 14.8269 28.3973 15.1094 28.4725H22.5489C22.6807 28.4725 22.7561 28.5477 22.7561 28.6792C22.7561 28.7544 22.7561 28.7544 22.6807 28.8107L15.1659 36.7973L15.0906 36.8725C15.0153 36.9477 15.0153 37.004 14.9588 37.0792V37.2107C14.9588 37.3423 15.0341 37.4926 15.1659 37.6242C15.2413 37.6993 15.3731 37.6993 15.5238 37.7557H20.6467C20.9292 37.7557 21.287 37.6242 21.4942 37.3987L29.4422 28.9235C29.5175 28.8483 29.5175 28.8483 29.5175 28.7919C29.5175 28.6604 29.4422 28.5852 29.3103 28.5852H25.0162C24.8843 28.5852 24.809 28.4537 24.809 28.3785C24.809 28.3034 24.809 28.3034 24.8843 28.247L33.2467 19.3396L33.322 19.2644C33.4538 19.1329 33.6045 19.0577 33.7363 19.0577C33.9435 19.0577 34.0942 19.1329 34.226 19.3396L38.9346 27.4765L39.4242 28.3221V28.4537C39.4242 28.5852 39.3489 28.6604 39.2171 28.6604H34.8664C34.7345 28.6604 34.5839 28.7919 34.5839 28.9423C34.5839 29.0175 34.5839 29.0738 34.6592 29.149L39.3677 37.2859V37.3611C39.5749 37.7181 39.9328 37.9248 40.2718 37.9248H50.1785C50.3103 37.9248 50.3857 37.9248 50.5364 37.8497C50.8189 37.7181 50.9507 37.4926 50.9507 37.2107C50.9507 37.1356 50.9507 37.004 50.8754 36.9289L50.8 36.7973L46.2422 28.9423V28.8671C46.2422 28.7356 46.3175 28.6604 46.4493 28.6604H54.6045C54.6045 28.6604 54.6798 28.6604 54.6798 28.5852L54.7552 28.5101C54.7552 28.5101 54.7552 28.4349 54.8305 28.4349C54.8305 28.4349 54.8305 28.3597 54.9058 28.3597C54.9058 28.3597 54.9059 28.2846 54.9812 28.2846V28.2282C55.0189 27.9463 55.0189 27.7396 54.887 27.4577ZM39.7821 18.5503H27.9166C27.7848 18.5503 27.7094 18.4188 27.7094 18.3436C27.7094 18.2685 27.7094 18.2121 27.7848 18.2121L34.8099 10.7141C34.8852 10.6389 34.9417 10.6389 35.0171 10.5826C35.0924 10.5074 35.2242 10.451 35.3749 10.451H35.4503C35.5821 10.451 35.8081 10.5826 35.8646 10.7329L40.1211 18.1369C40.1211 18.2121 40.1964 18.2121 40.1964 18.2685C40.0646 18.4188 39.9139 18.5503 39.7821 18.5503ZM-12.9157 13.9275H-26.0619L-30.4879 37.7557H-16.0798L-15.3829 33.6966H-23.2556L-22.069 27.3262H-15.6843L-14.9121 23.2671H-21.278L-20.2986 18.0054H-13.6879L-12.9157 13.9275ZM-0.485176 13.9275H-8.84751L-13.3489 37.7557H-5.1937C2.67896 37.7557 9.42155 32.494 9.42155 23.9436C9.42155 17.9866 5.97491 13.9275 -0.485176 13.9275ZM-4.34616 33.6966H-6.04123L-3.08429 17.9866H-1.33271C1.2664 17.9866 2.81079 20.9369 2.81079 24.0188C2.75429 30.3329 -1.33271 33.6966 -4.34616 33.6966ZM-62.0915 33.6966C-64.6906 33.6966 -66.235 30.7463 -66.235 27.6644C-66.235 21.3503 -62.0915 17.9866 -59.1345 17.9866H-51.0547L-50.2825 13.9275H-58.287C-66.1596 13.9275 -72.9022 19.1893 -72.9022 27.7396C-72.9022 33.6215 -69.4556 37.7557 -62.9955 37.7557H-54.6332L-53.861 33.6966H-62.0915ZM-36.1758 27.1758C-33.9345 26.0483 -31.1094 24.1691 -31.1094 20.0161C-31.1094 17.498 -32.8045 13.9839 -37.852 13.9839H-47.4762L-51.9776 37.8309H-45.5175L-43.8224 28.7919H-41.9955L-39.5282 37.8309H-32.4278L-36.1758 27.1758ZM-41.0915 24.6577H-43.0502L-41.713 17.9302H-40.0179C-38.6054 17.9302 -37.4941 19.3396 -37.4941 20.7302C-37.513 22.9664 -39.3399 24.6577 -41.0915 24.6577Z" fill="#B9A557"/>
</g>
<defs>
<clipPath id="clip0_62_3">
<rect width="42" height="28" fill="white" transform="translate(13 10)"/>
</clipPath>
</defs>
</svg>
